<svg xmlns="http://www.w3.org/2000/svg" width="1560" height="520" viewBox="0 0 1560 520">
  <defs>
    <linearGradient id="bg" x1="0" x2="1" y1="0" y2="1">
      <stop offset="0%" stop-color="#f4efe4"/>
      <stop offset="100%" stop-color="#e7efe8"/>
    </linearGradient>
    <marker id="arrow" markerWidth="12" markerHeight="12" refX="10" refY="6" orient="auto">
      <path d="M0,0 L12,6 L0,12 z" fill="#263238"/>
    </marker>
    <style>
      .title { font: 700 30px 'Segoe UI', sans-serif; fill: #1f2933; }
      .subtitle { font: 500 18px 'Segoe UI', sans-serif; fill: #43515c; }
      .boxTitle { font: 700 20px 'Segoe UI', sans-serif; fill: #12202b; }
      .boxText { font: 500 15px 'Segoe UI', sans-serif; fill: #27323b; }
      .arrow { stroke: #263238; stroke-width: 4; fill: none; marker-end: url(#arrow); }
      .skip { stroke: #1d6f8f; stroke-width: 3; stroke-dasharray: 10 8; fill: none; marker-end: url(#arrow); }
    </style>
  </defs>
  <rect width="1560" height="520" rx="28" fill="url(#bg)"/>
  <text x="60" y="62" class="title">Segmentation Pipeline for the Applied ANZA/LIRA Article</text>
  <text x="60" y="94" class="subtitle">Inference path: image -&gt; AZ encoder-decoder -&gt; probability map -&gt; threshold -&gt; vessel mask</text>

  <rect x="60" y="150" width="170" height="120" rx="20" fill="#fff6dc" stroke="#d8b75a" stroke-width="3"/>
  <text x="88" y="195" class="boxTitle">Input Image</text>
  <text x="88" y="225" class="boxText">Retinal RGB frame</text>
  <text x="88" y="248" class="boxText">normalized for model</text>

  <rect x="300" y="130" width="240" height="160" rx="24" fill="#e7f3ec" stroke="#4f8a6c" stroke-width="3"/>
  <text x="330" y="175" class="boxTitle">Encoder with AZ Blocks</text>
  <text x="330" y="205" class="boxText">AZ local aggregation</text>
  <text x="330" y="228" class="boxText">downsampling + skips</text>
  <text x="330" y="251" class="boxText">vessel-oriented features</text>

  <rect x="610" y="160" width="190" height="100" rx="20" fill="#ece7f6" stroke="#7d64a8" stroke-width="3"/>
  <text x="646" y="202" class="boxTitle">Bottleneck</text>
  <text x="646" y="230" class="boxText">context + geometry</text>

  <rect x="870" y="130" width="240" height="160" rx="24" fill="#e3eff7" stroke="#4e7eaa" stroke-width="3"/>
  <text x="904" y="175" class="boxTitle">Decoder</text>
  <text x="904" y="205" class="boxText">upsampling</text>
  <text x="904" y="228" class="boxText">skip fusion</text>
  <text x="904" y="251" class="boxText">boundary recovery</text>

  <rect x="1180" y="150" width="150" height="120" rx="20" fill="#f8e7e5" stroke="#bf6a5a" stroke-width="3"/>
  <text x="1209" y="195" class="boxTitle">Seg Head</text>
  <text x="1209" y="225" class="boxText">logits -&gt; sigmoid</text>
  <text x="1209" y="248" class="boxText">probability map</text>

  <rect x="1390" y="150" width="110" height="120" rx="20" fill="#eef3dd" stroke="#879944" stroke-width="3"/>
  <text x="1420" y="195" class="boxTitle">Mask</text>
  <text x="1410" y="225" class="boxText">threshold tau</text>
  <text x="1410" y="248" class="boxText">binary output</text>

  <path class="arrow" d="M230 210 H300"/>
  <path class="arrow" d="M540 210 H610"/>
  <path class="arrow" d="M800 210 H870"/>
  <path class="arrow" d="M1110 210 H1180"/>
  <path class="arrow" d="M1330 210 H1390"/>

  <path class="skip" d="M420 308 C420 380, 990 380, 990 308"/>
  <text x="644" y="408" class="subtitle">Skip connections carry high-resolution vessel cues from encoder to decoder.</text>

  <rect x="350" y="332" width="490" height="120" rx="20" fill="#ffffff" stroke="#263238" stroke-width="2.5"/>
  <text x="378" y="372" class="boxTitle">Inside one AZ block</text>
  <text x="378" y="402" class="boxText">value branch V(x) + membership branch mu(x) + anisotropic kernel kappa(x,y)</text>
  <text x="378" y="428" class="boxText">compat = mu(center) * mu(neighbor) * kappa, then normalization and pointwise mixing</text>
</svg>
